<?xml version="1.0" encoding="UTF-8" standalone="no"?>
<!-- Created with Inkscape (http://www.inkscape.org/) -->

<svg
   width="188.66mm"
   height="40mm"
   viewBox="0 0 188.66 40"
   version="1.1"
   id="svg5"
   inkscape:version="1.2.2 (732a01da63, 2022-12-09)"
   sodipodi:docname="logo.svg"
   inkscape:export-filename="logo.svg"
   inkscape:export-xdpi="696"
   inkscape:export-ydpi="696"
   xmlns:inkscape="http://www.inkscape.org/namespaces/inkscape"
   xmlns:sodipodi="http://sodipodi.sourceforge.net/DTD/sodipodi-0.dtd"
   xmlns:xlink="http://www.w3.org/1999/xlink"
   xmlns="http://www.w3.org/2000/svg"
   xmlns:svg="http://www.w3.org/2000/svg">
  <sodipodi:namedview
     id="namedview7"
     pagecolor="#ffffff"
     bordercolor="#000000"
     borderopacity="0.25"
     inkscape:showpageshadow="2"
     inkscape:pageopacity="0.0"
     inkscape:pagecheckerboard="0"
     inkscape:deskcolor="#d1d1d1"
     inkscape:document-units="mm"
     showgrid="false"
     inkscape:zoom="0.50903924"
     inkscape:cx="369.3232"
     inkscape:cy="624.70626"
     inkscape:window-width="2282"
     inkscape:window-height="1180"
     inkscape:window-x="1540"
     inkscape:window-y="614"
     inkscape:window-maximized="0"
     inkscape:current-layer="layer1" />
  <defs
     id="defs2">
    <linearGradient
       inkscape:collect="always"
       id="linearGradient5969">
      <stop
         style="stop-color:#000055;stop-opacity:1;"
         offset="0"
         id="stop5965" />
      <stop
         style="stop-color:#0000bd;stop-opacity:1;"
         offset="1"
         id="stop5967" />
    </linearGradient>
    <linearGradient
       inkscape:collect="always"
       id="linearGradient5893">
      <stop
         style="stop-color:#13faff;stop-opacity:1;"
         offset="0"
         id="stop5889" />
      <stop
         style="stop-color:#91deff;stop-opacity:1;"
         offset="1"
         id="stop5891" />
    </linearGradient>
    <linearGradient
       inkscape:collect="always"
       id="linearGradient5819">
      <stop
         style="stop-color:#004291;stop-opacity:1;"
         offset="0"
         id="stop5815" />
      <stop
         style="stop-color:#245cff;stop-opacity:1;"
         offset="0.5"
         id="stop5823" />
      <stop
         style="stop-color:#00cccf;stop-opacity:1;"
         offset="1"
         id="stop5817" />
    </linearGradient>
    <linearGradient
       inkscape:collect="always"
       id="linearGradient1163">
      <stop
         style="stop-color:#00119f;stop-opacity:1;"
         offset="0"
         id="stop1159" />
      <stop
         style="stop-color:#14b7ff;stop-opacity:1;"
         offset="1"
         id="stop1161" />
    </linearGradient>
    <linearGradient
       inkscape:collect="always"
       xlink:href="#linearGradient1163"
       id="linearGradient1165"
       x1="44.296963"
       y1="94.298462"
       x2="92.387695"
       y2="94.298462"
       gradientUnits="userSpaceOnUse" />
    <linearGradient
       inkscape:collect="always"
       xlink:href="#linearGradient5819"
       id="linearGradient5821"
       x1="44.296963"
       y1="94.298462"
       x2="92.387695"
       y2="94.298462"
       gradientUnits="userSpaceOnUse" />
    <linearGradient
       inkscape:collect="always"
       xlink:href="#linearGradient5893"
       id="linearGradient5895"
       x1="10.422777"
       y1="108.10337"
       x2="41.002823"
       y2="104.56806"
       gradientUnits="userSpaceOnUse" />
    <linearGradient
       inkscape:collect="always"
       xlink:href="#linearGradient5969"
       id="linearGradient5971"
       x1="10.422777"
       y1="127.02969"
       x2="38.071232"
       y2="122.80685"
       gradientUnits="userSpaceOnUse" />
    <linearGradient
       inkscape:collect="always"
       xlink:href="#linearGradient5819"
       id="linearGradient985"
       gradientUnits="userSpaceOnUse"
       x1="44.296963"
       y1="94.298462"
       x2="92.387695"
       y2="94.298462"
       gradientTransform="translate(-1.5875)" />
    <linearGradient
       inkscape:collect="always"
       xlink:href="#linearGradient5819"
       id="linearGradient987"
       gradientUnits="userSpaceOnUse"
       x1="44.296963"
       y1="94.298462"
       x2="92.387695"
       y2="94.298462"
       gradientTransform="translate(-1.5875)" />
    <linearGradient
       inkscape:collect="always"
       xlink:href="#linearGradient5819"
       id="linearGradient989"
       gradientUnits="userSpaceOnUse"
       x1="44.296963"
       y1="94.298462"
       x2="92.387695"
       y2="94.298462"
       gradientTransform="translate(-1.5875)" />
  </defs>
  <g
     inkscape:label="Ebene 1"
     inkscape:groupmode="layer"
     id="layer1">
    <text
       xml:space="preserve"
       style="font-size:22.5778px;font-family:Arial;-inkscape-font-specification:Arial;fill:none;stroke:#000000;stroke-width:4.99999"
       x="32.507462"
       y="102.69403"
       id="text741"><tspan
         sodipodi:role="line"
         id="tspan739"
         style="stroke-width:5"
         x="32.507462"
         y="102.69403" /></text>
    <g
       id="g1157"
       style="font-style:italic;font-weight:bold;font-size:22.5778px;font-family:Archivo;-inkscape-font-specification:'Archivo Bold Italic';fill:url(#linearGradient1165);fill-opacity:1;stroke-width:4.99999" />
    <g
       id="g367"
       transform="translate(-6.8382654,-97.566528)">
      <rect
         style="opacity:0.883663;fill:none;stroke-width:0.18992"
         id="rect1221"
         width="40"
         height="40"
         x="6.8382654"
         y="97.566528"
         inkscape:export-filename="..\..\..\..\public\favicon.png"
         inkscape:export-xdpi="696"
         inkscape:export-ydpi="696" />
      <g
         id="g1221"
         style="font-style:italic;font-weight:bold;font-size:22.5778px;font-family:Archivo;-inkscape-font-specification:'Archivo Bold Italic';fill:url(#linearGradient5821);fill-opacity:1;stroke-width:4.99999"
         transform="translate(6.7597939,23.44052)">
        <path
           d="m 42.709463,102.04265 2.754492,-15.488373 h 7.857075 q 1.490135,0 2.528713,0.428978 1.038579,0.406401 1.603024,1.196624 0.564445,0.767645 0.564445,1.896535 0,0.948268 -0.428978,1.761068 -0.428978,0.790223 -1.151468,1.332091 -0.722489,0.541867 -1.648179,0.745067 v 0.09031 q 1.016001,0.316089 1.693335,1.151468 0.677334,0.835379 0.677334,2.144891 0,1.603024 -0.790223,2.664181 -0.767645,1.03858 -2.032002,1.55787 -1.241779,0.51929 -2.709336,0.51929 z m 3.883382,-2.754493 h 4.741338 q 0.654756,0 1.196624,-0.225778 0.564445,-0.225778 0.880534,-0.72249 0.316089,-0.496712 0.316089,-1.241779 0,-0.767645 -0.474134,-1.196623 Q 52.80174,95.44993 51.808317,95.44993 h -4.560716 z m 1.151468,-6.479829 h 4.447827 q 0.587022,0 1.016001,-0.158045 0.428978,-0.180622 0.699911,-0.451556 0.270934,-0.293511 0.406401,-0.654756 0.158045,-0.361245 0.158045,-0.767645 0,-0.767645 -0.451557,-1.151468 -0.451556,-0.383823 -1.196623,-0.383823 h -4.470404 z"
           style="fill:url(#linearGradient985);fill-opacity:1;stroke-width:5"
           id="path1093" />
        <path
           d="m 59.010637,102.04265 2.754492,-15.488373 h 12.372635 l -0.496712,2.754492 h -8.985964 l -0.609601,3.454403 h 7.969964 l -0.474134,2.731914 h -7.992542 l -0.654756,3.770493 h 9.14401 l -0.496712,2.777071 z"
           style="fill:url(#linearGradient987);fill-opacity:1;stroke-width:5"
           id="path1090" />
        <path
           d="M 74.431288,102.04265 77.18578,86.554277 h 3.093158 l 4.515561,8.331208 q 0.158044,0.248356 0.316089,0.587023 0.180622,0.31609 0.338667,0.654757 0.180622,0.316089 0.316089,0.587022 l 0.135467,-0.02258 q 0.04516,-0.383823 0.112889,-0.835379 0.06773,-0.451556 0.112889,-0.745068 l 1.467557,-8.556986 h 3.206048 L 88.06828,102.04265 h -3.093159 l -4.447827,-8.195746 q -0.2032,-0.361245 -0.519289,-0.948268 -0.293512,-0.609601 -0.51929,-1.038579 h -0.112889 q -0.04516,0.406401 -0.135466,0.970846 -0.09031,0.541867 -0.158045,0.880534 l -1.444979,8.331213 z"
           style="fill:url(#linearGradient989);fill-opacity:1;stroke-width:5"
           id="path1087" />
      </g>
      <path
         d="M 99.994113,125.48317 102.7486,109.9948 h 3.3641 l -1.08374,6.14116 h 6.86365 l 1.08374,-6.14116 h 3.38667 l -2.73192,15.48837 h -3.38667 l 1.15147,-6.50241 h -6.86365 l -1.15147,6.50241 z"
         style="font-style:italic;font-weight:bold;font-size:22.5778px;font-family:Archivo;-inkscape-font-specification:'Archivo Bold Italic';fill:#000000;stroke-width:5"
         id="path1084" />
      <path
         d="m 117.01777,125.48317 2.75449,-15.48837 h 12.37264 l -0.49671,2.75449 h -8.98597 l -0.6096,3.4544 h 7.96996 l -0.47413,2.73192 h -7.99254 l -0.65476,3.77049 h 9.14401 l -0.49671,2.77707 z"
         style="font-style:italic;font-weight:bold;font-size:22.5778px;font-family:Archivo;-inkscape-font-specification:'Archivo Bold Italic';fill:#000000;stroke-width:5"
         id="path1081" />
      <path
         d="m 132.461,125.48317 2.73191,-15.48837 h 8.10543 q 1.60302,0 2.66418,0.49671 1.06116,0.47413 1.58045,1.35467 0.51929,0.85795 0.51929,2.032 0,1.35467 -0.4064,2.41582 -0.40641,1.06116 -1.19663,1.80623 -0.76764,0.74507 -1.91911,1.19662 l 2.07716,6.18632 h -3.63503 l -1.76107,-5.62187 h -4.40267 l -0.99342,5.62187 z m 4.85422,-8.30863 h 4.56072 q 0.74507,0 1.35467,-0.33867 0.63217,-0.36124 0.99342,-0.99342 0.36124,-0.63218 0.36124,-1.49014 0,-0.76764 -0.47413,-1.19662 -0.47413,-0.42898 -1.35467,-0.42898 h -4.6736 z"
         style="font-style:italic;font-weight:bold;font-size:22.5778px;font-family:Archivo;-inkscape-font-specification:'Archivo Bold Italic';fill:#000000;stroke-width:5"
         id="path1078" />
      <path
         d="m 148.92021,125.48317 2.75449,-15.48837 h 7.85707 q 1.49014,0 2.52872,0.42898 1.03857,0.4064 1.60302,1.19662 0.56444,0.76764 0.56444,1.89653 0,0.94827 -0.42897,1.76107 -0.42898,0.79022 -1.15147,1.33209 -0.72249,0.54187 -1.64818,0.74507 v 0.0903 q 1.016,0.31609 1.69333,1.15147 0.67734,0.83538 0.67734,2.14489 0,1.60302 -0.79022,2.66418 -0.76765,1.03858 -2.03201,1.55787 -1.24178,0.51929 -2.70933,0.51929 z m 3.88338,-2.75449 h 4.74134 q 0.65475,0 1.19662,-0.22578 0.56444,-0.22578 0.88053,-0.72249 0.31609,-0.49671 0.31609,-1.24178 0,-0.76765 -0.47413,-1.19662 -0.45156,-0.45156 -1.44498,-0.45156 h -4.56072 z m 1.15147,-6.47983 h 4.44782 q 0.58703,0 1.016,-0.15805 0.42898,-0.18062 0.69992,-0.45155 0.27093,-0.29351 0.4064,-0.65476 0.15804,-0.36124 0.15804,-0.76764 0,-0.76765 -0.45156,-1.15147 -0.45155,-0.38382 -1.19662,-0.38382 h -4.4704 z"
         style="font-style:italic;font-weight:bold;font-size:22.5778px;font-family:Archivo;-inkscape-font-specification:'Archivo Bold Italic';fill:#000000;stroke-width:5"
         id="path1075" />
      <path
         d="m 171.76894,125.7541 q -1.39983,0 -2.61903,-0.22578 -1.19662,-0.22577 -2.09973,-0.69991 -0.90311,-0.47413 -1.4224,-1.24178 -0.49671,-0.76764 -0.49671,-1.8288 0,-0.31609 0.0452,-0.67733 0.0677,-0.36125 0.13547,-0.63218 h 3.34151 q -0.0451,0.15804 -0.0903,0.38382 -0.0452,0.2032 -0.0452,0.38382 0,0.58703 0.36124,0.99343 0.36124,0.4064 1.03858,0.6096 0.67733,0.2032 1.60302,0.2032 0.88054,0 1.53529,-0.13547 0.65476,-0.13547 1.10632,-0.38382 0.45155,-0.24836 0.67733,-0.6096 0.24836,-0.36125 0.24836,-0.83538 0,-0.47413 -0.31609,-0.8128 -0.31609,-0.33867 -0.83538,-0.58702 -0.51929,-0.24836 -1.17405,-0.42898 -0.65475,-0.2032 -1.37724,-0.38383 -0.83538,-0.24835 -1.67076,-0.54186 -0.83538,-0.31609 -1.53529,-0.76765 -0.67734,-0.47413 -1.08374,-1.15147 -0.4064,-0.69991 -0.4064,-1.69333 0,-1.28694 0.54187,-2.21263 0.54187,-0.94826 1.46756,-1.55786 0.92569,-0.6096 2.12231,-0.90312 1.2192,-0.29351 2.50614,-0.29351 1.30951,0 2.39324,0.22578 1.10632,0.2032 1.91912,0.65476 0.83538,0.45155 1.28693,1.17404 0.45156,0.69991 0.45156,1.67076 0,0.2032 -0.0226,0.45156 -0.0226,0.24835 -0.0903,0.65475 h -3.29636 q 0.0677,-0.22577 0.0677,-0.33866 0.0226,-0.11289 0.0226,-0.18063 0,-0.74506 -0.67733,-1.19662 -0.67734,-0.45156 -1.91912,-0.45156 -0.99342,0 -1.73849,0.22578 -0.72249,0.2032 -1.12889,0.58703 -0.38382,0.38382 -0.38382,0.92569 0,0.38382 0.22578,0.67733 0.22578,0.27093 0.63218,0.47413 0.42898,0.2032 0.97084,0.38383 0.56445,0.18062 1.19663,0.33866 0.88053,0.24836 1.8288,0.56445 0.94827,0.29351 1.76107,0.79022 0.8128,0.47413 1.30951,1.2192 0.49671,0.72249 0.49671,1.78365 0,1.44498 -0.58702,2.48356 -0.56445,1.016 -1.55787,1.67075 -0.97085,0.63218 -2.19005,0.94827 -1.2192,0.29351 -2.52871,0.29351 z"
         style="font-style:italic;font-weight:bold;font-size:22.5778px;font-family:Archivo;-inkscape-font-specification:'Archivo Bold Italic';fill:#000000;stroke-width:5"
         id="path1072" />
      <path
         d="m 184.38995,125.48317 2.2352,-12.66615 h -4.96712 l 0.49672,-2.82222 h 13.34348 l -0.49672,2.82222 h -4.98969 l -2.2352,12.66615 z"
         style="font-style:italic;font-weight:bold;font-size:22.5778px;font-family:Archivo;-inkscape-font-specification:'Archivo Bold Italic';fill:#000000;stroke-width:5"
         id="path1069" />
      <g
         id="g1228">
        <path
           id="path5097"
           style="font-style:italic;font-weight:bold;font-size:22.5778px;font-family:Archivo;-inkscape-font-specification:'Archivo Bold Italic';fill:url(#linearGradient5971);fill-opacity:1;stroke:none;stroke-width:1.47367;stroke-opacity:1"
           inkscape:transform-center-x="-7.8188091"
           d="m 26.838159,117.55225 -8.207554,4.73871 -8.207828,4.73872 8.207828,4.73872 8.207554,4.73872 8.207829,-4.73872 8.207829,-4.73872 -8.207829,-4.73872 z"
           inkscape:export-filename="..\..\..\..\public\favicon.png"
           inkscape:export-xdpi="49.509998"
           inkscape:export-ydpi="49.509998" />
        <path
           id="path5356"
           style="font-style:italic;font-weight:bold;font-size:22.5778px;font-family:Archivo;-inkscape-font-specification:'Archivo Bold Italic';fill:url(#linearGradient5895);fill-opacity:1;stroke:none;stroke-width:1.47367;stroke-opacity:1"
           inkscape:transform-center-x="-7.8188165"
           inkscape:transform-center-y="-1.6786467e-06"
           d="m 26.838159,98.625934 -8.207554,4.738716 -8.207828,4.73872 8.207828,4.73872 8.207554,4.73872 8.207829,-4.73872 8.207829,-4.73872 -8.207829,-4.73872 z" />
        <g
           id="g6085"
           style="fill:#0000ff;fill-opacity:1">
          <path
             sodipodi:type="star"
             style="font-style:italic;font-weight:bold;font-size:22.5778px;font-family:Archivo;-inkscape-font-specification:'Archivo Bold Italic';fill:#0000ff;fill-opacity:1;stroke:none;stroke-width:4.99999;stroke-opacity:1"
             id="path5099"
             inkscape:flatsided="false"
             sodipodi:sides="3"
             sodipodi:cx="20.494259"
             sodipodi:cy="32.205265"
             sodipodi:r1="37.130749"
             sodipodi:r2="18.565376"
             sodipodi:arg1="0.52359878"
             sodipodi:arg2="1.5707963"
             inkscape:rounded="0"
             inkscape:randomized="0"
             d="m 52.65043,50.77064 -32.156171,10e-7 -32.156172,-2e-6 L 4.4161711,22.922577 20.494259,-4.9254837 36.572346,22.922576 Z"
             transform="matrix(0,-0.29473364,0.29473364,0,28.289946,123.59155)"
             inkscape:transform-center-x="7.818815" />
          <path
             sodipodi:type="star"
             style="font-style:italic;font-weight:bold;font-size:22.5778px;font-family:Archivo;-inkscape-font-specification:'Archivo Bold Italic';fill:#0000ff;fill-opacity:1;stroke:none;stroke-width:4.99999;stroke-opacity:1"
             id="path5397"
             inkscape:flatsided="false"
             sodipodi:sides="3"
             sodipodi:cx="20.494259"
             sodipodi:cy="32.205265"
             sodipodi:r1="37.130749"
             sodipodi:r2="18.565376"
             sodipodi:arg1="0.52359878"
             sodipodi:arg2="1.5707963"
             inkscape:rounded="0"
             inkscape:randomized="0"
             d="m 52.65043,50.77064 -32.156171,10e-7 -32.156172,-2e-6 L 4.4161711,22.922577 20.494259,-4.9254837 36.572346,22.922576 Z"
             transform="matrix(0,-0.29473364,-0.29473364,0,25.38653,123.59155)"
             inkscape:transform-center-x="7.818815" />
        </g>
      </g>
    </g>
  </g>
</svg>
